<svg xmlns="http://www.w3.org/2000/svg" width="393" height="626.5" viewBox="0 0 393 626.5">
  <defs>
    <style>
      text { font-family: monospace; font-size: 13px; fill: #222; }
      .part-box  { fill: #4a90d9; stroke: #2c5f8a; stroke-width:1.5; rx:4; }
      .part-lab  { fill: white; font-weight: bold; }
      .life-line { stroke: #999; stroke-width:1; stroke-dasharray:5,4; }
      .arrow      { stroke: #333; stroke-width:1.5; fill: none; }
      .arrow-head { fill: #333; }
      .ret-arrow  { stroke: #666; stroke-width:1.5; fill: none; stroke-dasharray:6,3; }
      .activation { fill: #c5e3ff; stroke: #4a90d9; stroke-width:1; }
      .msg-box    { fill: #fffde7; stroke: #e0c800; stroke-width:1; rx:3; }
      .msg-text   { fill: #333; font-size: 11px; }
      .ret-text   { fill: #666; font-size: 11px; font-style: italic; }
      .node-box   { fill: #e8f4fd; stroke: #4a90d9; stroke-width:1.5; rx:6; }
      .class-box  { fill: #f0f7ff; stroke: #4a90d9; stroke-width:1.5; rx:4; }
      .class-hdr  { fill: #4a90d9; rx:4; }
      .class-htxt { fill: white; font-weight: bold; }
      .edge-line   { stroke: #555; stroke-width:1.5; fill:none; }
      .edge-lab    { fill: #555; font-size: 11px; }
      .arrow-group { cursor: crosshair; }
      .ret-hitpad  { fill: rgba(0,0,0,0); stroke: none; }
    </style>
    <marker id="arr" markerWidth="8" markerHeight="6" refX="8" refY="3" orient="auto">
      <polygon points="0 0, 8 3, 0 6" class="arrow-head"/>
    </marker>
    <marker id="ret-arr" markerWidth="8" markerHeight="6" refX="8" refY="3" orient="auto">
      <polyline points="0 0, 8 3, 0 6" fill="none" stroke="gray" stroke-width="1.2"/>
    </marker>
  </defs>
  <text x="196.5" y="20.5" text-anchor="middle" style="font-weight:bold;font-size:15px;fill:#333">Sequence Diagram — /create</text>
  <line x1="20" y1="30.0" x2="373.0" y2="30.0" stroke="#ddd" stroke-width="1"/>
  <g transform="translate(0,30.0)">
  <rect x="22.0" y="10.0" width="145.2" height="44.0" rx="4" class="part-box"/>
<text x="94.6" y="36.5" text-anchor="middle" class="part-lab">TestController</text>
  <rect x="171.2" y="10.0" width="199.8" height="44.0" rx="4" class="part-box"/>
<text x="271.1" y="36.5" text-anchor="middle" class="part-lab">TicketCreationService</text>
  <line x1="94.6" y1="54.0" x2="94.6" y2="576.5" class="life-line" data-participant="TestController"/><rect x="84.6" y="54.0" width="20.0" height="522.5" fill="rgba(0,0,0,0)" stroke="none" pointer-events="all" style="cursor:crosshair" data-participant="TestController" class="life-hit"/>
  <line x1="271.1" y1="54.0" x2="271.1" y2="576.5" class="life-line" data-participant="TicketCreationService"/><rect x="261.1" y="54.0" width="20.0" height="522.5" fill="rgba(0,0,0,0)" stroke="none" pointer-events="all" style="cursor:crosshair" data-participant="TicketCreationService" class="life-hit"/>
  <rect x="265.1" y="109.0" width="12.0" height="385.0" rx="2" class="activation"/>
  <rect x="88.6" y="54.0" width="12.0" height="522.5" rx="2" class="activation"/>
  <rect x="269.1" y="164.0" width="12.0" height="55.0" rx="2" class="activation"/>
  <rect x="269.1" y="274.0" width="12.0" height="55.0" rx="2" class="activation"/>
  <rect x="269.1" y="384.0" width="12.0" height="55.0" rx="2" class="activation"/>
  <line x1="100.6" y1="109.0" x2="265.1" y2="109.0" class="arrow" marker-end="url(#arr)" pointer-events="stroke" data-label="crudTicket()" data-kind="call"/><rect x="100.6" y="97.0" width="164.5" height="24" class="ret-hitpad" pointer-events="all" data-label="crudTicket()" data-kind="call"/><rect x="133.0" y="87.0" width="99.6" height="20.0" rx="3" class="msg-box" pointer-events="all" data-label="crudTicket()" data-kind="call"/><text x="182.8" y="103.5" text-anchor="middle" class="msg-text">crudTicket()</text>
  <path d="M 277.1,164.0 H 321.1 V 196.0 H 281.1" class="arrow" marker-end="url(#arr)"/>
<rect x="222.0" y="142.0" width="154.2" height="20.0" rx="3" class="msg-box"/>
<text x="299.1" y="158.5" text-anchor="middle" class="msg-text">getMapTicketToXML()</text>
  <path d="M 277.1,274.0 H 321.1 V 306.0 H 281.1" class="arrow" marker-end="url(#arr)"/>
<rect x="241.5" y="252.0" width="115.2" height="20.0" rx="3" class="msg-box"/>
<text x="299.1" y="268.5" text-anchor="middle" class="msg-text">insertTicket()</text>
  <path d="M 277.1,384.0 H 321.1 V 416.0 H 281.1" class="arrow" marker-end="url(#arr)"/>
<rect x="229.8" y="362.0" width="138.6" height="20.0" rx="3" class="msg-box"/>
<text x="299.1" y="378.5" text-anchor="middle" class="msg-text">modificarTicket()</text>
  <line x1="265.1" y1="494.0" x2="100.6" y2="494.0" class="ret-arrow" marker-end="url(#ret-arr)" pointer-events="stroke" data-label="boolean" data-kind="return"/><text x="182.8" y="490.0" text-anchor="middle" class="ret-text">boolean</text><rect x="100.6" y="482.0" width="164.5" height="24" class="ret-hitpad" pointer-events="all" data-label="boolean" data-kind="return"/>
  </g>
</svg>