<?xml version="1.0" encoding="UTF-8" standalone="no"?>
<!DOCTYPE svg PUBLIC "-//W3C//DTD SVG 1.1//EN"
 "http://www.w3.org/Graphics/SVG/1.1/DTD/svg11.dtd">
<!-- Generated by graphviz version 14.1.4 (20260321.0153)
 -->
<!-- Title: components Pages: 1 -->
<svg width="1063pt" height="438pt"
 viewBox="0.00 0.00 1063.00 438.00" xmlns="http://www.w3.org/2000/svg" xmlns:xlink="http://www.w3.org/1999/xlink">
<g id="graph0" class="graph" transform="scale(1 1) rotate(0) translate(4 434.01)">
<title>components</title>
<polygon fill="white" stroke="none" points="-4,4 -4,-434.01 1059,-434.01 1059,4 -4,4"/>
<g id="clust1" class="cluster">
<title>cluster_presentation</title>
<polygon fill="#f0f5ff" stroke="#4a90d9" stroke-width="2" points="358,-333.84 358,-422.01 500,-422.01 500,-333.84 358,-333.84"/>
<text xml:space="preserve" text-anchor="start" x="392.62" y="-407.61" font-family="Helvetica,sans-Serif" font-weight="bold" font-size="12.00">Presentation</text>
</g>
<g id="clust2" class="cluster">
<title>cluster_business</title>
<polygon fill="#f0fff5" stroke="#3a9a50" stroke-width="2" points="8,-14 8,-277.09 176,-277.09 176,-14 8,-14"/>
<text xml:space="preserve" text-anchor="start" x="65" y="-262.69" font-family="Helvetica,sans-Serif" font-weight="bold" font-size="12.00">Business</text>
</g>
<g id="clust3" class="cluster">
<title>cluster_data</title>
<polygon fill="#fff8f0" stroke="#d07820" stroke-width="2" points="331,-8 331,-120.17 727,-120.17 727,-8 331,-8"/>
<text xml:space="preserve" text-anchor="start" x="515.88" y="-105.77" font-family="Helvetica,sans-Serif" font-weight="bold" font-size="12.00">Data</text>
</g>
<g id="clust4" class="cluster">
<title>cluster_other</title>
<polygon fill="#fdfdfd" stroke="#aaaaaa" stroke-width="2" points="754,-182.92 754,-271.09 1047,-271.09 1047,-182.92 754,-182.92"/>
<text xml:space="preserve" text-anchor="start" x="884.75" y="-256.69" font-family="Helvetica,sans-Serif" font-weight="bold" font-size="12.00">Other</text>
</g>
<!-- m_com_enel_virtualentity_batch_equipment_extractor_controller -->
<g id="node1" class="node">
<title>m_com_enel_virtualentity_batch_equipment_extractor_controller</title>
<polygon fill="#deeeff" stroke="#4a90d9" points="492.21,-391.76 365.79,-391.76 365.79,-387.76 361.79,-387.76 361.79,-383.76 365.79,-383.76 365.79,-349.84 361.79,-349.84 361.79,-345.84 365.79,-345.84 365.79,-341.84 492.21,-341.84 492.21,-391.76"/>
<polyline fill="none" stroke="#4a90d9" points="365.79,-387.76 369.79,-387.76 369.79,-383.76 365.79,-383.76"/>
<polyline fill="none" stroke="#4a90d9" points="365.79,-349.84 369.79,-349.84 369.79,-345.84 365.79,-345.84"/>
<text xml:space="preserve" text-anchor="middle" x="429" y="-369.3" font-family="Helvetica,sans-Serif" font-size="10.00">controller</text>
<text xml:space="preserve" text-anchor="middle" x="429" y="-357.3" font-family="Helvetica,sans-Serif" font-size="10.00">ExtractorControllerImpl</text>
</g>
<!-- m_com_enel_virtualentity_batch_equipment_extractor_entity_old -->
<g id="node2" class="node">
<title>m_com_enel_virtualentity_batch_equipment_extractor_entity_old</title>
<polygon fill="#d8f8e4" stroke="#3a9a50" points="167.83,-83.92 30.17,-83.92 30.17,-79.92 26.16,-79.92 26.16,-75.92 30.17,-75.92 30.17,-30 26.17,-30 26.17,-26 30.17,-26 30.17,-22 167.83,-22 167.83,-83.92"/>
<polyline fill="none" stroke="#3a9a50" points="30.17,-79.92 34.17,-79.92 34.17,-75.92 30.17,-75.92"/>
<polyline fill="none" stroke="#3a9a50" points="30.17,-30 34.17,-30 34.17,-26 30.17,-26"/>
<text xml:space="preserve" text-anchor="middle" x="99" y="-61.46" font-family="Helvetica,sans-Serif" font-size="10.00">old</text>
<text xml:space="preserve" text-anchor="middle" x="99" y="-49.46" font-family="Helvetica,sans-Serif" font-size="10.00">Additionalbusinesspartner</text>
<text xml:space="preserve" text-anchor="middle" x="99" y="-37.46" font-family="Helvetica,sans-Serif" font-size="10.00">Codelist</text>
</g>
<!-- m_com_enel_virtualentity_batch_equipment_extractor_controller&#45;&gt;m_com_enel_virtualentity_batch_equipment_extractor_entity_old -->
<g id="edge2" class="edge">
<title>m_com_enel_virtualentity_batch_equipment_extractor_controller&#45;&gt;m_com_enel_virtualentity_batch_equipment_extractor_entity_old</title>
<path fill="none" stroke="#555555" stroke-dasharray="5,2" d="M429,-293.84C430.92,-290.07 168.71,-141.8 167,-137.92"/>
</g>
<!-- m_com_enel_virtualentity_service -->
<g id="node3" class="node">
<title>m_com_enel_virtualentity_service</title>
<polygon fill="#d8f8e4" stroke="#3a9a50" points="167.96,-246.84 16.04,-246.84 16.04,-242.84 12.04,-242.84 12.04,-238.84 16.04,-238.84 16.04,-192.92 12.04,-192.92 12.04,-188.92 16.04,-188.92 16.04,-184.92 167.96,-184.92 167.96,-246.84"/>
<polyline fill="none" stroke="#3a9a50" points="16.04,-242.84 20.04,-242.84 20.04,-238.84 16.04,-238.84"/>
<polyline fill="none" stroke="#3a9a50" points="16.04,-192.92 20.04,-192.92 20.04,-188.92 16.04,-188.92"/>
<text xml:space="preserve" text-anchor="middle" x="92" y="-224.38" font-family="Helvetica,sans-Serif" font-size="10.00">service</text>
<text xml:space="preserve" text-anchor="middle" x="92" y="-212.38" font-family="Helvetica,sans-Serif" font-size="10.00">OrquestrationLogServiceImpl</text>
<text xml:space="preserve" text-anchor="middle" x="92" y="-200.38" font-family="Helvetica,sans-Serif" font-size="10.00">RulesServicesImpl</text>
</g>
<!-- m_com_enel_virtualentity_batch_equipment_extractor_controller&#45;&gt;m_com_enel_virtualentity_service -->
<g id="edge5" class="edge">
<title>m_com_enel_virtualentity_batch_equipment_extractor_controller&#45;&gt;m_com_enel_virtualentity_service</title>
<path fill="none" stroke="#555555" stroke-dasharray="5,2" d="M429,-293.84C439.91,-272.88 239.81,-283.25 217,-277.09 195.71,-271.34 173.67,-262 154.12,-252.38"/>
<polygon fill="#555555" stroke="#555555" points="145.24,-247.89 156.19,-248.38 148.61,-249.59 154.16,-252.4 154.16,-252.4 154.16,-252.4 148.61,-249.59 152.13,-256.41 145.24,-247.89"/>
<path fill="none" stroke="#555555" stroke-dasharray="5,2" d="M423.63,-341.48C421.72,-327.12 421.61,-309.05 429,-294.84"/>
</g>
<!-- m_com_enel_virtualentity_batch_equipment_extractor_repository -->
<g id="node4" class="node">
<title>m_com_enel_virtualentity_batch_equipment_extractor_repository</title>
<polygon fill="#ffeedd" stroke="#d07820" points="496.58,-89.92 339.42,-89.92 339.42,-85.92 335.42,-85.92 335.42,-81.92 339.42,-81.92 339.42,-24 335.42,-24 335.42,-20 339.42,-20 339.42,-16 496.58,-16 496.58,-89.92"/>
<polyline fill="none" stroke="#d07820" points="339.42,-85.92 343.42,-85.92 343.42,-81.92 339.42,-81.92"/>
<polyline fill="none" stroke="#d07820" points="339.42,-24 343.42,-24 343.42,-20 339.42,-20"/>
<text xml:space="preserve" text-anchor="middle" x="418" y="-67.46" font-family="Helvetica,sans-Serif" font-size="10.00">repository</text>
<text xml:space="preserve" text-anchor="middle" x="418" y="-55.46" font-family="Helvetica,sans-Serif" font-size="10.00">CategoriesMappingRepository</text>
<text xml:space="preserve" text-anchor="middle" x="418" y="-43.46" font-family="Helvetica,sans-Serif" font-size="10.00">ParametersRepository</text>
<text xml:space="preserve" text-anchor="middle" x="418" y="-31.46" font-family="Helvetica,sans-Serif" font-size="10.00">RulesRepository</text>
</g>
<!-- m_com_enel_virtualentity_batch_equipment_extractor_controller&#45;&gt;m_com_enel_virtualentity_batch_equipment_extractor_repository -->
<g id="edge3" class="edge">
<title>m_com_enel_virtualentity_batch_equipment_extractor_controller&#45;&gt;m_com_enel_virtualentity_batch_equipment_extractor_repository</title>
<path fill="none" stroke="#cc2222" stroke-width="2.5" d="M429,-293.84C460.99,-232.37 395.61,-198.64 429,-137.92"/>
<text xml:space="preserve" text-anchor="middle" x="472.58" y="-210.83" font-family="Times New Roman,serif" font-size="14.00" fill="#cc2222">⚠ violation</text>
</g>
<!-- m_com_enel_virtualentity_utils_mapper -->
<g id="node5" class="node">
<title>m_com_enel_virtualentity_utils_mapper</title>
<polygon fill="#ffeedd" stroke="#d07820" points="718.59,-77.92 561.41,-77.92 561.41,-73.92 557.41,-73.92 557.41,-69.92 561.41,-69.92 561.41,-36 557.41,-36 557.41,-32 561.41,-32 561.41,-28 718.59,-28 718.59,-77.92"/>
<polyline fill="none" stroke="#d07820" points="561.41,-73.92 565.41,-73.92 565.41,-69.92 561.41,-69.92"/>
<polyline fill="none" stroke="#d07820" points="561.41,-36 565.41,-36 565.41,-32 561.41,-32"/>
<text xml:space="preserve" text-anchor="middle" x="640" y="-55.46" font-family="Helvetica,sans-Serif" font-size="10.00">mapper</text>
<text xml:space="preserve" text-anchor="middle" x="640" y="-43.46" font-family="Helvetica,sans-Serif" font-size="10.00">ExcelElectricTypeRowMapper</text>
</g>
<!-- m_com_enel_virtualentity_batch_equipment_extractor_controller&#45;&gt;m_com_enel_virtualentity_utils_mapper -->
<g id="edge6" class="edge">
<title>m_com_enel_virtualentity_batch_equipment_extractor_controller&#45;&gt;m_com_enel_virtualentity_utils_mapper</title>
<path fill="none" stroke="#cc2222" stroke-width="2.5" d="M429,-293.84C448.71,-256.26 488.76,-302.16 523,-277.09 585.85,-231.07 617.87,-141.1 631.55,-90.6"/>
<polygon fill="#cc2222" stroke="#cc2222" stroke-width="2.5" points="634.02,-81.01 635.88,-91.82 634.26,-83.09 632.25,-90.88 631.52,-90.69 630.8,-90.51 632.81,-82.72 627.17,-89.57 634.02,-81.01"/>
<text xml:space="preserve" text-anchor="middle" x="631.08" y="-210.83" font-family="Times New Roman,serif" font-size="14.00" fill="#cc2222">⚠ violation</text>
</g>
<!-- m_com_enel_virtualentity_batch_equipment_agui_entity -->
<g id="node6" class="node">
<title>m_com_enel_virtualentity_batch_equipment_agui_entity</title>
<polygon fill="#f5f5f5" stroke="#aaaaaa" points="898.46,-240.84 761.54,-240.84 761.54,-236.84 757.54,-236.84 757.54,-232.84 761.54,-232.84 761.54,-198.92 757.54,-198.92 757.54,-194.92 761.54,-194.92 761.54,-190.92 898.46,-190.92 898.46,-240.84"/>
<polyline fill="none" stroke="#aaaaaa" points="761.54,-236.84 765.54,-236.84 765.54,-232.84 761.54,-232.84"/>
<polyline fill="none" stroke="#aaaaaa" points="761.54,-198.92 765.54,-198.92 765.54,-194.92 761.54,-194.92"/>
<text xml:space="preserve" text-anchor="middle" x="830" y="-218.38" font-family="Helvetica,sans-Serif" font-size="10.00">entity</text>
<text xml:space="preserve" text-anchor="middle" x="830" y="-206.38" font-family="Helvetica,sans-Serif" font-size="10.00">AguiColumnsRecordDTO</text>
</g>
<!-- m_com_enel_virtualentity_batch_equipment_extractor_controller&#45;&gt;m_com_enel_virtualentity_batch_equipment_agui_entity -->
<g id="edge1" class="edge">
<title>m_com_enel_virtualentity_batch_equipment_extractor_controller&#45;&gt;m_com_enel_virtualentity_batch_equipment_agui_entity</title>
<path fill="none" stroke="#555555" stroke-dasharray="5,2" d="M429,-293.84C443.59,-265.8 682.51,-285.43 713,-277.09 737.35,-270.43 762.48,-258.3 783.17,-246.66"/>
<polygon fill="#555555" stroke="#555555" points="791.6,-241.81 785.18,-250.7 788.32,-243.69 782.93,-246.8 782.93,-246.8 782.93,-246.8 788.32,-243.69 780.69,-242.9 791.6,-241.81"/>
</g>
<!-- m_com_enel_virtualentity_dto -->
<g id="node7" class="node">
<title>m_com_enel_virtualentity_dto</title>
<polygon fill="#f5f5f5" stroke="#aaaaaa" points="1038.71,-240.84 963.29,-240.84 963.29,-236.84 959.29,-236.84 959.29,-232.84 963.29,-232.84 963.29,-198.92 959.29,-198.92 959.29,-194.92 963.29,-194.92 963.29,-190.92 1038.71,-190.92 1038.71,-240.84"/>
<polyline fill="none" stroke="#aaaaaa" points="963.29,-236.84 967.29,-236.84 967.29,-232.84 963.29,-232.84"/>
<polyline fill="none" stroke="#aaaaaa" points="963.29,-198.92 967.29,-198.92 967.29,-194.92 963.29,-194.92"/>
<text xml:space="preserve" text-anchor="middle" x="1001" y="-218.38" font-family="Helvetica,sans-Serif" font-size="10.00">dto</text>
<text xml:space="preserve" text-anchor="middle" x="1001" y="-206.38" font-family="Helvetica,sans-Serif" font-size="10.00">Description</text>
</g>
<!-- m_com_enel_virtualentity_batch_equipment_extractor_controller&#45;&gt;m_com_enel_virtualentity_dto -->
<g id="edge4" class="edge">
<title>m_com_enel_virtualentity_batch_equipment_extractor_controller&#45;&gt;m_com_enel_virtualentity_dto</title>
<path fill="none" stroke="#555555" stroke-dasharray="5,2" d="M429,-293.84C441.88,-269.09 905,-287.23 931,-277.09 946.65,-270.99 961.22,-259.79 972.97,-248.69"/>
<polygon fill="#555555" stroke="#555555" points="979.77,-241.94 975.84,-252.18 977.09,-244.61 972.67,-248.99 972.67,-248.99 972.67,-248.99 977.09,-244.61 969.5,-245.79 979.77,-241.94"/>
</g>
<!-- m_com_enel_virtualentity_service&#45;&gt;m_com_enel_virtualentity_batch_equipment_extractor_entity_old -->
<g id="edge7" class="edge">
<title>m_com_enel_virtualentity_service&#45;&gt;m_com_enel_virtualentity_batch_equipment_extractor_entity_old</title>
<path fill="none" stroke="#555555" stroke-dasharray="5,2" d="M148.19,-184.48C163.91,-171.71 174.82,-155.68 167,-137.92"/>
<path fill="none" stroke="#555555" stroke-dasharray="5,2" d="M167,-136.92C159.98,-120.98 149.02,-105.62 137.93,-92.53"/>
<polygon fill="#555555" stroke="#555555" points="131.46,-85.2 141.45,-89.73 133.96,-88.04 138.07,-92.7 138.07,-92.7 138.07,-92.7 133.96,-88.04 134.7,-95.68 131.46,-85.2"/>
</g>
<!-- m_com_enel_virtualentity_service&#45;&gt;m_com_enel_virtualentity_batch_equipment_extractor_repository -->
<g id="edge8" class="edge">
<title>m_com_enel_virtualentity_service&#45;&gt;m_com_enel_virtualentity_batch_equipment_extractor_repository</title>
<path fill="none" stroke="#555555" stroke-dasharray="5,2" d="M168.21,-210.13C259.72,-202.45 404.06,-183.28 429,-137.92"/>
<path fill="none" stroke="#555555" stroke-dasharray="5,2" d="M429,-136.92C434.95,-126.1 435.74,-113.32 434.13,-101.08"/>
<polygon fill="#555555" stroke="#555555" points="432.29,-91.25 438.56,-100.25 432.99,-94.97 434.13,-101.08 434.13,-101.08 434.13,-101.08 432.99,-94.97 429.71,-101.91 432.29,-91.25"/>
</g>
</g>
</svg>
